<svg width="113" height="113" viewBox="0 0 113 113" fill="none" xmlns="http://www.w3.org/2000/svg">
<circle cx="56.4678" cy="56.4679" r="36.2587" transform="rotate(-36.8665 56.4678 56.4679)" fill="#FFB600"/>
<path d="M60.636 29.2588C57.9152 29.4561 55.9445 33.0254 56.2343 37.231C56.524 41.4366 58.9646 44.6861 61.6854 44.4888C64.4062 44.2915 66.3769 40.7223 66.0871 36.5166C65.7973 32.311 63.3568 29.0616 60.636 29.2588Z" fill="#1C1C1C"/>
<path d="M48.5769 37.1487C46.7363 37.2821 45.1037 35.6969 44.0701 33.3301C43.7226 34.6045 43.5454 35.9803 43.6505 37.5059C43.9659 42.0827 46.4385 45.5945 49.1454 45.3982C51.8522 45.202 53.8148 41.3118 53.5033 36.7915C53.3982 35.2659 53.0302 33.8729 52.5154 32.7177C51.8205 35.2667 50.3634 37.0191 48.5769 37.1487Z" fill="#1C1C1C"/>
<path d="M72.4018 49.1296L73.0728 65.4876C73.2088 68.8026 72.6428 71.7654 71.3222 74.3782C70.0566 77.043 68.2385 79.1318 65.8152 80.6465C63.447 82.2135 60.7307 83.0326 57.5632 83.1625C54.3956 83.2924 51.5686 82.7007 49.1328 81.3309C46.5935 80.0196 44.6105 78.0868 43.0781 75.5367C41.6007 73.0388 40.794 70.1323 40.6581 66.8172L39.9871 50.4592L47.2197 50.1626L47.8907 66.5205C47.9731 68.5313 48.4163 70.3096 49.2706 71.7987C50.0743 73.3444 51.232 74.4946 52.6403 75.3078C53.9958 76.1232 55.5446 76.4951 57.289 76.478C58.9761 76.3544 60.5421 75.8547 61.8262 74.931C63.1632 74.0052 64.17 72.7662 64.8972 71.1577C65.6267 69.6036 65.9227 67.795 65.8402 65.7842L65.1692 49.4263L72.4018 49.1296Z" fill="#1C1C1C"/>
<path d="M19.425 96.7109L41.5874 89.0841L26.279 73.445L19.425 96.7109Z" fill="#FFB600"/>
</svg>
