<svg width="87" height="87" viewBox="0 0 87 87" fill="none" xmlns="http://www.w3.org/2000/svg">
<circle cx="31.8266" cy="31.8266" r="31.8266" transform="matrix(-0.484568 0.874754 0.874754 0.484568 30.8442 0)" fill="#FFB600"/>
<path d="M43.1218 31.7334C41.0182 32.95 37.8111 31.3395 35.9584 28.1362C34.1057 24.9328 34.3091 21.3498 36.4126 20.1332C38.5162 18.9166 41.7233 20.5271 43.576 23.7304C45.4287 26.9337 45.2253 30.5168 43.1218 31.7334Z" fill="#1C1C1C"/>
<path d="M30.3514 32.0239C28.9284 32.847 28.5032 34.8159 28.9038 37.0538C28.0214 36.3007 27.2147 35.3888 26.5426 34.2268C24.5264 30.7408 24.6246 26.9509 26.7173 25.7405C28.8101 24.5301 32.1689 26.3781 34.1602 29.8211C34.8323 30.9831 35.2453 32.18 35.4332 33.2775C33.6683 31.7712 31.7327 31.2251 30.3514 32.0239Z" fill="#1C1C1C"/>
<path d="M28.0019 45.3159L35.1966 57.7556C36.6547 60.2766 38.4673 62.2065 40.6747 63.522C42.8659 64.902 45.1956 65.5953 47.704 65.5785C50.1961 65.6262 52.5945 64.956 55.0034 63.5629C57.4122 62.1697 59.2293 60.4018 60.3905 58.241C61.656 56.0752 62.2169 53.7101 62.1535 51.0994C62.0739 48.5533 61.3051 46.0197 59.8471 43.4987L52.6523 31.0589L47.1522 34.24L54.3469 46.6798C55.2313 48.2089 55.739 49.7353 55.8061 51.2408C55.9372 52.7644 55.62 54.1612 54.9586 55.4262C54.3374 56.6679 53.3643 57.6719 52.0633 58.4795C50.7547 59.1812 49.3591 59.5472 47.973 59.4664C46.5467 59.4089 45.2179 58.9641 43.9225 58.1138C42.651 57.3049 41.5812 56.1037 40.6968 54.5745L33.5021 42.1348L28.0019 45.3159Z" fill="#1C1C1C"/>
<path d="M73.7939 6.21063L69.8304 26.3983L54.39 14.9706L73.7939 6.21063Z" fill="#FFB600"/>
</svg>
