<?xml version="1.0" encoding="UTF-8"?><svg id="Calque_1" xmlns="http://www.w3.org/2000/svg" viewBox="0 0 417.16 211.42"><defs><style>.cls-1{fill:#000;stroke-width:0px;}</style></defs><path class="cls-1" d="M65.14,210.08v-28.2c0-5.71,1.22-10.77,3.74-15.17,2.43-4.49,5.8-7.96,10.2-10.39,4.31-2.53,9.17-3.74,14.79-3.74s10.58,1.22,14.79,3.74c4.4,2.43,7.77,5.9,10.3,10.39,2.43,4.4,3.65,9.46,3.65,15.17v28.2h-12.83v-28.2c0-3.46-.66-6.55-2.06-9.17-1.31-2.71-3.28-4.77-5.71-6.27-2.34-1.5-5.06-2.25-8.14-2.34-3,.09-5.8.84-8.14,2.34-2.43,1.5-4.31,3.56-5.71,6.27-1.4,2.62-2.06,5.71-2.06,9.17v28.2h-12.83Z"/><path class="cls-1" d="M57.48,153.92v28.2c0,5.71-1.22,10.77-3.74,15.17-2.43,4.49-5.8,7.96-10.2,10.39-4.31,2.53-9.17,3.74-14.79,3.74-5.62,0-10.58-1.22-14.79-3.74-4.4-2.43-7.77-5.9-10.3-10.39C1.22,192.89,0,187.83,0,182.12v-28.2s12.83,0,12.83,0v28.2c0,3.46.66,6.55,2.06,9.17,1.31,2.71,3.28,4.77,5.71,6.27,2.34,1.5,5.06,2.25,8.14,2.34,3-.09,5.8-.84,8.14-2.34,2.43-1.5,4.31-3.56,5.71-6.27,1.4-2.62,2.06-5.71,2.06-9.17v-28.2s12.83,0,12.83,0Z"/><path class="cls-1" d="M130.26,210.08v-78.64h12.58v68.19l-.68,10.45h-11.9ZM160.6,211.42c-4.72,0-8.79-1.22-12.2-3.65-3.4-2.43-6.01-5.86-7.81-10.28-1.79-4.42-2.7-9.59-2.7-15.51s.91-11.18,2.7-15.56c1.8-4.38,4.41-7.79,7.81-10.22,3.41-2.43,7.48-3.65,12.2-3.65,5.09,0,9.53,1.22,13.31,3.65,3.78,2.43,6.74,5.84,8.87,10.22,2.14,4.38,3.21,9.57,3.21,15.56s-1.07,11.08-3.21,15.51c-2.13,4.42-5.09,7.84-8.87,10.28-3.78,2.43-8.22,3.65-13.31,3.65ZM157.45,199.97c2.99,0,5.65-.77,7.97-2.3s4.18-3.65,5.56-6.34c1.39-2.7,2.08-5.81,2.08-9.33s-.66-6.63-1.97-9.33c-1.32-2.7-3.14-4.79-5.45-6.29-2.32-1.5-5.02-2.25-8.09-2.25-2.85,0-5.39.77-7.64,2.3s-3.99,3.65-5.22,6.34-1.86,5.77-1.86,9.22.62,6.63,1.86,9.33,2.95,4.81,5.17,6.34,4.74,2.3,7.59,2.3Z"/><path class="cls-1" d="M222.6,211.42c-5.7,0-10.71-1.25-15.05-3.76-4.35-2.51-7.75-5.97-10.23-10.39-2.47-4.42-3.7-9.51-3.7-15.28s1.22-10.86,3.65-15.28c2.43-4.42,5.82-7.88,10.17-10.39,4.34-2.5,9.29-3.76,14.83-3.76s10.71,1.25,15.06,3.76c4.34,2.51,7.73,5.98,10.17,10.39,2.43,4.42,3.65,9.51,3.65,15.28s-1.22,10.86-3.65,15.28c-2.43,4.42-5.81,7.88-10.11,10.39-4.31,2.5-9.23,3.76-14.77,3.76ZM222.6,199.86c3.14,0,5.9-.77,8.26-2.3,2.36-1.54,4.21-3.63,5.57-6.29,1.34-2.66,2.02-5.75,2.02-9.27s-.68-6.61-2.02-9.27c-1.35-2.65-3.25-4.75-5.68-6.29s-5.22-2.3-8.37-2.3-5.92.77-8.32,2.3-4.27,3.64-5.61,6.29c-1.35,2.66-2.02,5.75-2.02,9.27s.69,6.61,2.08,9.27c1.38,2.66,3.29,4.75,5.73,6.29,2.43,1.54,5.22,2.3,8.37,2.3Z"/><path class="cls-1" d="M262.03,210.08v-56.17h12.58v56.17h-12.58ZM270.34,180.19c0-6.06,1.16-11.04,3.48-14.94,2.32-3.89,5.34-6.79,9.04-8.7,3.71-1.91,7.59-2.87,11.63-2.87v12.02c-3.45,0-6.68.48-9.72,1.41-3.04.93-5.49,2.45-7.36,4.55-1.87,2.09-2.81,4.86-2.81,8.31l-4.27.22Z"/><path class="cls-1" d="M327.85,211.42c-5.47,0-10.31-1.25-14.55-3.76-4.23-2.51-7.57-5.97-10-10.39-2.43-4.42-3.65-9.51-3.65-15.28s1.23-10.86,3.7-15.28c2.48-4.42,5.86-7.88,10.17-10.39,4.31-2.5,9.23-3.76,14.77-3.76,5.02,0,9.55,1.29,13.59,3.87,4.04,2.59,7.25,6.32,9.61,11.18,2.36,4.87,3.54,10.67,3.54,17.42h-44.15l1.68-1.57c0,3.45.75,6.42,2.25,8.93,1.49,2.5,3.48,4.43,5.95,5.78,2.47,1.35,5.2,2.03,8.2,2.03,3.45,0,6.29-.77,8.54-2.3,2.25-1.54,4-3.54,5.28-6.02l11.13,4.72c-1.57,3-3.57,5.62-6.02,7.87-2.43,2.24-5.31,3.97-8.65,5.17-3.33,1.2-7.13,1.79-11.4,1.79ZM313.36,176.94l-1.8-1.57h31.69l-1.69,1.57c0-3.07-.68-5.6-2.02-7.58s-3.05-3.48-5.11-4.5-4.21-1.52-6.46-1.52-4.49.5-6.74,1.52-4.12,2.51-5.61,4.5c-1.5,1.98-2.25,4.51-2.25,7.58Z"/><path class="cls-1" d="M386.95,211.42c-5.09,0-9.54-1.22-13.31-3.65-3.78-2.43-6.75-5.86-8.88-10.28-2.13-4.42-3.2-9.59-3.2-15.51s1.07-11.18,3.2-15.56,5.09-7.79,8.88-10.22c3.78-2.43,8.22-3.65,13.31-3.65,4.72,0,8.78,1.22,12.19,3.65,3.41,2.43,6.02,5.84,7.81,10.22,1.8,4.38,2.7,9.57,2.7,15.56s-.9,11.08-2.7,15.51c-1.79,4.42-4.4,7.84-7.81,10.28-3.41,2.43-7.47,3.65-12.19,3.65ZM390.09,199.97c2.84,0,5.38-.77,7.58-2.3,2.21-1.54,3.93-3.65,5.17-6.34,1.23-2.7,1.85-5.81,1.85-9.33s-.61-6.63-1.85-9.33c-1.24-2.7-2.96-4.79-5.17-6.29-2.2-1.5-4.77-2.25-7.69-2.25s-5.66.75-7.98,2.25c-2.32,1.5-4.14,3.59-5.45,6.29s-2,5.81-2.08,9.33c.07,3.52.77,6.63,2.08,9.33s3.14,4.81,5.5,6.34c2.36,1.54,5.04,2.3,8.04,2.3ZM405.26,210.08l-.57-10.45v-68.19h12.47v78.64h-11.9Z"/><path class="cls-1" d="M205.24,37.76v28.57c0,5.79-1.23,10.91-3.79,15.37-2.47,4.55-5.88,8.06-10.34,10.53-4.36,2.56-9.29,3.79-14.99,3.79-5.69,0-10.72-1.23-14.99-3.79-4.46-2.47-7.87-5.98-10.43-10.53-2.47-4.46-3.7-9.58-3.7-15.37v-28.57s12.99,0,12.99,0v28.57c0,3.51.66,6.64,2.09,9.29,1.33,2.75,3.32,4.84,5.79,6.35,2.37,1.52,5.12,2.28,8.25,2.37,3.04-.09,5.88-.85,8.25-2.37,2.47-1.52,4.36-3.6,5.79-6.35,1.42-2.66,2.09-5.79,2.09-9.29v-28.57s12.99,0,12.99,0Z"/><ellipse class="cls-1" cx="164.2" cy="13.88" rx="8.61" ry="13.88"/><ellipse class="cls-1" cx="188.04" cy="13.88" rx="8.61" ry="13.88"/><path class="cls-1" d="M212.1,93.85v-28.15c0-5.7,1.21-10.75,3.74-15.14,2.43-4.49,5.79-7.94,10.19-10.37,4.3-2.52,9.16-3.74,14.76-3.74,5.61,0,10.56,1.21,14.77,3.74,4.39,2.43,7.76,5.89,10.28,10.37,2.43,4.39,3.64,9.44,3.64,15.14v28.15s-12.8,0-12.8,0v-28.15c0-3.46-.65-6.54-2.06-9.16-1.31-2.71-3.27-4.77-5.7-6.26-2.34-1.5-5.05-2.24-8.13-2.34-2.99.09-5.79.84-8.13,2.34-2.43,1.49-4.3,3.55-5.7,6.26-1.4,2.62-2.06,5.7-2.06,9.16v28.15s-12.8,0-12.8,0Z"/><ellipse class="cls-1" cx="229.05" cy="13.93" rx="8.48" ry="13.68"/><ellipse class="cls-1" cx="252.53" cy="13.93" rx="8.48" ry="13.68"/></svg>